<?xml version="1.0" standalone="no"?>
<!DOCTYPE svg PUBLIC "-//W3C//DTD SVG 20010904//EN"
 "http://www.w3.org/TR/2001/REC-SVG-20010904/DTD/svg10.dtd">
<svg version="1.0" xmlns="http://www.w3.org/2000/svg"
 width="600.000000pt" height="600.000000pt" viewBox="0 0 600.000000 600.000000"
 preserveAspectRatio="xMidYMid meet">
<metadata>
Created by potrace 1.14, written by Peter Selinger 2001-2017
</metadata>
<g transform="translate(0.000000,600.000000) scale(0.100000,-0.100000)"
fill="#000000" stroke="none">
<path d="M2960 5919 c-658 -75 -1165 -430 -1408 -985 -115 -263 -162 -503
-162 -829 0 -361 60 -628 206 -920 236 -469 681 -792 1224 -886 334 -58 862
-19 1159 86 24 8 45 15 47 15 2 0 4 -267 4 -592 0 -718 -9 -810 -93 -993 -83
-181 -236 -299 -435 -335 -100 -18 -266 -14 -370 10 -51 11 -103 20 -117 20
-38 0 -79 -25 -94 -56 -19 -43 -45 -315 -30 -324 19 -12 217 -49 329 -61 177
-19 411 1 555 47 379 123 608 396 701 837 24 113 26 151 34 507 5 212 9 877 9
1478 l1 1092 -550 0 -550 0 0 -150 0 -150 29 -32 29 -33 276 -3 276 -3 0 -404
0 -405 -61 -30 c-225 -114 -592 -176 -891 -151 -346 29 -607 147 -825 374
-119 124 -204 260 -268 432 -134 356 -138 858 -9 1215 166 462 526 744 1031
811 134 17 421 7 546 -20 194 -41 328 -96 517 -211 115 -71 165 -86 212 -67
18 8 40 23 49 33 25 29 149 230 149 242 0 5 -30 34 -67 64 -209 169 -438 279
-703 338 -206 46 -538 63 -750 39z"/>
</g>
</svg>
